<svg id="visual" viewBox="0 0 1920 1080" width="1920" height="1080" xmlns="http://www.w3.org/2000/svg" xmlns:xlink="http://www.w3.org/1999/xlink" version="1.1"><path d="M0 98L40 92.7C80 87.3 160 76.7 240 80.3C320 84 400 102 480 105.5C560 109 640 98 720 98C800 98 880 109 960 110.8C1040 112.7 1120 105.3 1200 99.8C1280 94.3 1360 90.7 1440 99.7C1520 108.7 1600 130.3 1680 128.7C1760 127 1840 102 1880 89.5L1920 77L1920 0L1880 0C1840 0 1760 0 1680 0C1600 0 1520 0 1440 0C1360 0 1280 0 1200 0C1120 0 1040 0 960 0C880 0 800 0 720 0C640 0 560 0 480 0C400 0 320 0 240 0C160 0 80 0 40 0L0 0Z" fill="#4facf7"></path><path d="M0 249L40 268.8C80 288.7 160 328.3 240 364.3C320 400.3 400 432.7 480 414.7C560 396.7 640 328.3 720 297.8C800 267.3 880 274.7 960 285.5C1040 296.3 1120 310.7 1200 332.2C1280 353.7 1360 382.3 1440 393.2C1520 404 1600 397 1680 388C1760 379 1840 368 1880 362.5L1920 357L1920 75L1880 87.5C1840 100 1760 125 1680 126.7C1600 128.3 1520 106.7 1440 97.7C1360 88.7 1280 92.3 1200 97.8C1120 103.3 1040 110.7 960 108.8C880 107 800 96 720 96C640 96 560 107 480 103.5C400 100 320 82 240 78.3C160 74.7 80 85.3 40 90.7L0 96Z" fill="#47a2ef"></path><path d="M0 293L40 323.5C80 354 160 415 240 452.7C320 490.3 400 504.7 480 481.3C560 458 640 397 720 373.7C800 350.3 880 364.7 960 384.5C1040 404.3 1120 429.7 1200 444C1280 458.3 1360 461.7 1440 467C1520 472.3 1600 479.7 1680 485.2C1760 490.7 1840 494.3 1880 496.2L1920 498L1920 355L1880 360.5C1840 366 1760 377 1680 386C1600 395 1520 402 1440 391.2C1360 380.3 1280 351.7 1200 330.2C1120 308.7 1040 294.3 960 283.5C880 272.7 800 265.3 720 295.8C640 326.3 560 394.7 480 412.7C400 430.7 320 398.3 240 362.3C160 326.3 80 286.7 40 266.8L0 247Z" fill="#3f98e8"></path><path d="M0 401L40 424.3C80 447.7 160 494.3 240 523C320 551.7 400 562.3 480 533.5C560 504.7 640 436.3 720 413C800 389.7 880 411.3 960 436.5C1040 461.7 1120 490.3 1200 508.3C1280 526.3 1360 533.7 1440 544.5C1520 555.3 1600 569.7 1680 571.5C1760 573.3 1840 562.7 1880 557.3L1920 552L1920 496L1880 494.2C1840 492.3 1760 488.7 1680 483.2C1600 477.7 1520 470.3 1440 465C1360 459.7 1280 456.3 1200 442C1120 427.7 1040 402.3 960 382.5C880 362.7 800 348.3 720 371.7C640 395 560 456 480 479.3C400 502.7 320 488.3 240 450.7C160 413 80 352 40 321.5L0 291Z" fill="#388ee0"></path><path d="M0 465L40 490.3C80 515.7 160 566.3 240 591.7C320 617 400 617 480 581C560 545 640 473 720 447.7C800 422.3 880 443.7 960 476C1040 508.3 1120 551.7 1200 571.5C1280 591.3 1360 587.7 1440 593C1520 598.3 1600 612.7 1680 612.7C1760 612.7 1840 598.3 1880 591.2L1920 584L1920 550L1880 555.3C1840 560.7 1760 571.3 1680 569.5C1600 567.7 1520 553.3 1440 542.5C1360 531.7 1280 524.3 1200 506.3C1120 488.3 1040 459.7 960 434.5C880 409.3 800 387.7 720 411C640 434.3 560 502.7 480 531.5C400 560.3 320 549.7 240 521C160 492.3 80 445.7 40 422.3L0 399Z" fill="#3284d8"></path><path d="M0 865L40 861.3C80 857.7 160 850.3 240 839.5C320 828.7 400 814.3 480 816.2C560 818 640 836 720 843.2C800 850.3 880 846.7 960 853.8C1040 861 1120 879 1200 884.5C1280 890 1360 883 1440 861.5C1520 840 1600 804 1680 789.5C1760 775 1840 782 1880 785.5L1920 789L1920 582L1880 589.2C1840 596.3 1760 610.7 1680 610.7C1600 610.7 1520 596.3 1440 591C1360 585.7 1280 589.3 1200 569.5C1120 549.7 1040 506.3 960 474C880 441.7 800 420.3 720 445.7C640 471 560 543 480 579C400 615 320 615 240 589.7C160 564.3 80 513.7 40 488.3L0 463Z" fill="#2d7ad0"></path><path d="M0 908L40 906.2C80 904.3 160 900.7 240 895.3C320 890 400 883 480 883C560 883 640 890 720 899C800 908 880 919 960 924.5C1040 930 1120 930 1200 937.2C1280 944.3 1360 958.7 1440 940.7C1520 922.7 1600 872.3 1680 854.3C1760 836.3 1840 850.7 1880 857.8L1920 865L1920 787L1880 783.5C1840 780 1760 773 1680 787.5C1600 802 1520 838 1440 859.5C1360 881 1280 888 1200 882.5C1120 877 1040 859 960 851.8C880 844.7 800 848.3 720 841.2C640 834 560 816 480 814.2C400 812.3 320 826.7 240 837.5C160 848.3 80 855.7 40 859.3L0 863Z" fill="#2870c8"></path><path d="M0 1038L40 1032.5C80 1027 160 1016 240 1016C320 1016 400 1027 480 1019.8C560 1012.7 640 987.3 720 978.3C800 969.3 880 976.7 960 985.7C1040 994.7 1120 1005.3 1200 1012.5C1280 1019.7 1360 1023.3 1440 1014.3C1520 1005.3 1600 983.7 1680 981.8C1760 980 1840 998 1880 1007L1920 1016L1920 863L1880 855.8C1840 848.7 1760 834.3 1680 852.3C1600 870.3 1520 920.7 1440 938.7C1360 956.7 1280 942.3 1200 935.2C1120 928 1040 928 960 922.5C880 917 800 906 720 897C640 888 560 881 480 881C400 881 320 888 240 893.3C160 898.7 80 902.3 40 904.2L0 906Z" fill="#2467c0"></path><path d="M0 1081L40 1081C80 1081 160 1081 240 1081C320 1081 400 1081 480 1081C560 1081 640 1081 720 1081C800 1081 880 1081 960 1081C1040 1081 1120 1081 1200 1081C1280 1081 1360 1081 1440 1081C1520 1081 1600 1081 1680 1081C1760 1081 1840 1081 1880 1081L1920 1081L1920 1014L1880 1005C1840 996 1760 978 1680 979.8C1600 981.7 1520 1003.3 1440 1012.3C1360 1021.3 1280 1017.7 1200 1010.5C1120 1003.3 1040 992.7 960 983.7C880 974.7 800 967.3 720 976.3C640 985.3 560 1010.7 480 1017.8C400 1025 320 1014 240 1014C160 1014 80 1025 40 1030.5L0 1036Z" fill="#215db7"></path></svg>